<svg version="1.1" id="Aspose.Slides_for_PHP" xmlns="http://www.w3.org/2000/svg" x="0" y="0" viewBox="0 0 277 277" style="enable-background:new 0 0 277 277" xml:space="preserve"><style>.st0{fill:#fff}.st1{fill-rule:evenodd;clip-rule:evenodd;fill:#4f5d94}</style><g id="PHP"><path class="st0" d="m263.3 17.3-8.8-5.7h-233l-8.8 8.8v233.8l5.7 7.6h174l70.9-90z"/><path class="st1" d="M87.8 180.6c0-25.8 9-47.7 27.1-65.8 18-18.1 39.9-27.1 65.8-27.1 25.5 0 47.4 9 65.6 27.1 18.2 18.1 27.3 40 27.3 65.8 0 25.7-9.1 47.5-27.3 65.6-18.2 18.2-40.1 27.3-65.6 27.3-25.9 0-47.8-9.1-65.8-27.3-18.1-18.1-27.1-40-27.1-65.6"/><path class="st1" d="M273.5 180.6h-10.9V23.8c0-4-1.4-6.7-4.3-8.1-1-.5-2.2-.9-3.5-1.1l-1.6-.2H23.8c-4.1 0-6.8 1.4-8.1 4.2-.8 1.6-1.3 3.4-1.3 5.2v229.5c0 4 1.4 6.7 4.2 8 1.6.8 3.3 1.3 5.2 1.4h152.1l4.8 10.9H20.4c-2.8 0-5.6-.7-8.4-2.1-5.6-2.8-8.4-7.7-8.4-14.8V20.4c0-2.8.7-5.6 2.2-8.4 2.8-5.6 7.7-8.4 14.7-8.4h236.3l2.6.3c2.1.3 4.1.9 5.8 1.9 5.6 2.8 8.4 7.7 8.4 14.7v160.1z"/><path d="M76.3 76.4c0 5.1-1.9 9.2-5.6 12.1-3.7 2.9-8.9 4.4-15.4 4.4s-11.9-1-16.1-3V81c2.6 1.2 5.4 2.2 8.4 2.9s5.7 1.1 8.3 1.1c3.7 0 6.5-.7 8.3-2.1 1.8-1.4 2.7-3.3 2.7-5.7 0-2.2-.8-4-2.5-5.5-1.6-1.5-5-3.3-10.1-5.3-5.3-2.1-9-4.6-11.2-7.3-2.2-2.7-3.2-6-3.2-9.9 0-4.8 1.7-8.6 5.1-11.4s8-4.2 13.8-4.2c5.5 0 11.1 1.2 16.5 3.6l-3 7.7c-5.1-2.2-9.7-3.2-13.8-3.2-3.1 0-5.4.7-7 2-1.6 1.3-2.4 3.1-2.4 5.3 0 1.5.3 2.8.9 3.9.6 1.1 1.7 2.1 3.1 3 1.5 1 4.1 2.2 7.8 3.8 4.2 1.8 7.4 3.4 9.3 4.9 2 1.5 3.4 3.3 4.4 5.2 1.3 1.7 1.7 3.9 1.7 6.6z" style="fill:#4f5d94"/><g id="Symbol_9_"><path class="st0" d="M181.3 162.7c0 15.6-12.6 28.3-28.2 28.3s-28.2-12.7-28.2-28.3 12.6-28.3 28.2-28.3c1.1 0 0 0 0 0v28.3l25.5-12.4c1.5 2.4 2.7 6.4 2.7 12.4z"/><path class="st0" d="M156.4 128.1v27.3l24.9-12.2s-6.1-15.6-24.9-15.1zM190.8 138.3h43.6v1.9h-43.6zM190.8 158.8h43.6v1.9h-43.6zM190.8 180.7h43.6v1.9h-43.6zM138.4 204.1h96v1.9h-96zM138.4 225.6h96v1.9h-96zM124.8 201.7h8.5v8.8h-8.5zM124.8 222.2h8.5v8.8h-8.5z"/></g></g></svg>