<?xml version="1.0" encoding="utf-8"?>
<!-- Generator: Adobe Illustrator 25.2.0, SVG Export Plug-In . SVG Version: 6.00 Build 0)  -->
<svg version="1.1" id="Layer_1" xmlns="http://www.w3.org/2000/svg" xmlns:xlink="http://www.w3.org/1999/xlink" x="0px" y="0px"
	 viewBox="0 0 277 277" style="enable-background:new 0 0 277 277;" xml:space="preserve">
<style type="text/css">
	.st0{fill:#FFFFFF;}
	.st1{fill-rule:evenodd;clip-rule:evenodd;fill:#FFCD38;}
	.st2{fill:#FFCD38;}
</style>
<g id="NET_1_">
	<polygon class="st0" points="263.4,17.3 254.5,11.6 21.5,11.6 12.7,20.4 12.7,254.2 18.4,261.8 192.4,261.8 263.4,171.8 	"/>
	<path class="st1" d="M87.8,180.6c0-25.8,9-47.7,27.1-65.8c18-18.1,39.9-27.1,65.8-27.1c25.5,0,47.4,9,65.6,27.1
		c18.2,18.1,27.3,40,27.3,65.8c0,25.7-9.1,47.5-27.3,65.6c-18.2,18.2-40.1,27.3-65.6,27.3c-25.9,0-47.8-9.1-65.8-27.3
		C96.8,228.1,87.8,206.2,87.8,180.6"/>
	<path class="st1" d="M273.5,180.6h-10.9V23.8c0-4-1.4-6.7-4.3-8.1c-1-0.5-2.1-0.9-3.5-1.1l-1.6-0.2H23.8c-4.1,0-6.8,1.4-8.1,4.2
		c-0.8,1.6-1.2,3.4-1.3,5.2v229.5c0,4,1.4,6.7,4.2,8c1.6,0.8,3.3,1.3,5.2,1.4h152.1l4.8,10.9H20.4c-2.8,0-5.6-0.7-8.4-2.1
		c-5.6-2.8-8.4-7.8-8.4-14.8V20.4c0-2.8,0.7-5.6,2.2-8.4c2.8-5.6,7.7-8.4,14.7-8.4h236.2l2.6,0.3c2.1,0.3,4.1,0.9,5.8,1.9
		c5.6,2.8,8.4,7.7,8.4,14.7V180.6z"/>
	<g>
		<path class="st2" d="M76.3,76.3c0,5.2-1.9,9.2-5.6,12.1s-8.8,4.4-15.4,4.4c-6.5,0-11.9-1-16.1-3.1v-8.9c2.6,1.2,5.4,2.2,8.4,2.9
			s5.7,1.1,8.3,1.1c3.8,0,6.5-0.7,8.3-2.1s2.7-3.3,2.7-5.7c0-2.2-0.8-4-2.4-5.5c-1.6-1.5-5-3.3-10.1-5.3c-5.3-2.1-9-4.6-11.2-7.3
			s-3.2-6-3.2-9.9c0-4.8,1.7-8.6,5.1-11.4s8-4.2,13.8-4.2c5.5,0,11,1.2,16.5,3.6l-3,7.7c-5.2-2.2-9.7-3.2-13.8-3.2
			c-3.1,0-5.4,0.7-7,2c-1.6,1.3-2.4,3.1-2.4,5.3c0,1.5,0.3,2.8,1,3.9s1.7,2.1,3.1,3c1.5,1,4.1,2.2,7.8,3.8c4.2,1.8,7.4,3.4,9.3,4.9
			s3.4,3.3,4.3,5.2C75.9,71.5,76.3,73.7,76.3,76.3z"/>
	</g>
	<g id="Symbol">
		<path class="st0" d="M181.3,162.7c0,15.6-12.6,28.3-28.2,28.3s-28.2-12.7-28.2-28.3s12.6-28.3,28.2-28.3c1.1,0,0,0,0,0v28.3
			c0,0,0,0,25.5-12.4C180.1,152.7,181.3,156.6,181.3,162.7z"/>
		<path class="st0" d="M156.4,128.1v27.3l24.9-12.2C181.3,143.2,175.2,127.6,156.4,128.1z"/>
		<rect x="190.8" y="138.3" class="st0" width="43.6" height="1.9"/>
		<rect x="190.8" y="158.8" class="st0" width="43.6" height="1.9"/>
		<rect x="190.8" y="180.7" class="st0" width="43.6" height="1.9"/>
		<rect x="138.4" y="204.1" class="st0" width="95.9" height="1.9"/>
		<rect x="138.4" y="225.6" class="st0" width="95.9" height="1.9"/>
		<rect x="124.8" y="201.7" class="st0" width="8.5" height="8.8"/>
		<rect x="124.8" y="222.2" class="st0" width="8.5" height="8.8"/>
	</g>
</g>
</svg>
