<?xml version="1.0" encoding="utf-8"?>
<svg version="1.1" id="Aspose.Slides_for_Nodejs_via_Net"
	 xmlns="http://www.w3.org/2000/svg" xmlns:xlink="http://www.w3.org/1999/xlink" x="0px" y="0px" viewBox="0 0 272 272"
	 style="enable-background:new 0 0 272 272;" xml:space="preserve">
<style type="text/css">
	.st0{fill:#FFFFFF;}
	.st1{fill-rule:evenodd;clip-rule:evenodd;fill:#68A164;}
	.st2{fill:#68A164;}
	.st3{fill:#672572;}
</style>
<g id="Nodejs_via_Net">
	<g id="Nodejs">
		<path class="st0" d="M221.9,52.5l-7.5-4.9H15.9l-7.5,7.5v199.2l4.9,6.5h148.2l60.4-76.7V52.5L221.9,52.5z"/>
		<path class="st1" d="M72.4,191.6c0-22,7.7-40.6,23.1-56.1c15.3-15.4,34-23.1,56.1-23.1c21.7,0,40.4,7.7,55.9,23.1
			s23.3,34.1,23.3,56.1c0,21.9-7.8,40.5-23.3,55.9c-15.5,15.5-34.2,23.3-55.9,23.3c-22.1,0-40.7-7.8-56.1-23.3
			S72.4,213.4,72.4,191.6"/>
		<path class="st1" d="M230.6,191.6h-9.3V58c0-3.4-1.2-5.7-3.7-6.9c-0.9-0.4-1.9-0.8-3-0.9l-1.4-0.2H17.9c-3.5,0-5.8,1.2-6.9,3.6
			C10.3,55,9.9,56.5,9.9,58v195.5c0,3.4,1.2,5.7,3.6,6.8c1.4,0.7,2.8,1.1,4.4,1.2h129.6l4.1,9.3H15c-2.4,0-4.8-0.6-7.2-1.8
			c-4.8-2.4-7.2-6.6-7.2-12.6V55.1c0-2.4,0.6-4.8,1.9-7.2c2.5-4.7,6.6-7.1,12.6-7.1h201.3l2.2,0.3c1.8,0.3,3.5,0.8,4.9,1.6
			c4.8,2.4,7.2,6.6,7.2,12.5L230.6,191.6L230.6,191.6z"/>
		<path class="st2" d="M62.6,102.8c0,4.3-1.6,7.8-4.8,10.3s-7.6,3.7-13.1,3.7s-10.1-0.9-13.7-2.6v-7.6c2.2,1,4.6,1.9,7.2,2.5
			c2.6,0.6,4.9,0.9,7.1,0.9c3.2,0,5.5-0.6,7.1-1.8s2.3-2.8,2.3-4.9c0-1.9-0.7-3.4-2.1-4.7c-1.4-1.3-4.3-2.8-8.6-4.5
			c-4.5-1.8-7.7-3.9-9.5-6.2c-1.9-2.3-2.7-5.1-2.7-8.4c0-4.1,1.4-7.3,4.3-9.7c2.9-2.4,6.8-3.6,11.8-3.6c4.7,0,9.5,1,14.1,3.1
			l-2.6,6.6c-4.3-1.9-8.3-2.7-11.8-2.7c-2.6,0-4.6,0.6-6,1.7s-2,2.6-2,4.5c0,1.3,0.3,2.4,0.8,3.3s1.4,1.8,2.6,2.6
			c1.3,0.9,3.5,1.9,6.6,3.2c3.6,1.5,6.3,2.9,7.9,4.2c1.7,1.3,2.9,2.8,3.7,4.4C62.3,98.6,62.6,100.5,62.6,102.8z"/>
		<g id="Symbol_9_">
			<path class="st0" d="M152.1,176.3c0,13.3-10.7,24.1-24,24.1s-24-10.8-24-24.1s10.7-24.1,24-24.1c0.9,0,0,0,0,0v24.1l21.7-10.6
				C151.1,167.8,152.1,171.2,152.1,176.3z"/>
			<path class="st0" d="M130.9,146.9v23.3l21.2-10.4C152.1,159.7,146.9,146.4,130.9,146.9z M160.2,155.5h37.1v1.6h-37.1L160.2,155.5
				L160.2,155.5z M160.2,173h37.1v1.6h-37.1L160.2,173L160.2,173z M160.2,191.7h37.1v1.6h-37.1L160.2,191.7L160.2,191.7z
				 M115.5,211.6h81.8v1.6h-81.8V211.6z M115.5,229.9h81.8v1.6h-81.8V229.9z M103.9,209.6h7.2v7.5h-7.2V209.6z M103.9,227h7.2v7.5
				h-7.2V227z"/>
		</g>
	</g>
	<path class="st0" d="M205.9,73.4c0,0-3.1,1.8,2.2,2.4c6.4,0.7,9.7,0.6,16.8-0.7c0,0,1.8,1.1,4.5,2.2
		C213.5,84.1,193.3,76.9,205.9,73.4 M204,64.5c0,0-3.5,2.6,1.8,3.1c6.8,0.7,12.3,0.8,21.6-1c0,0,1.3,1.3,3.4,2
		C211.6,74.3,190.3,69.1,204,64.5 M220.3,49.6c3.9,4.5-1,8.5-1,8.5s9.9-5.1,5.4-11.5c-4.2-6-7.5-8.9,10.1-19.2
		C234.7,27.4,207,34.3,220.3,49.6"/>
	<path class="st0" d="M241.2,80c0,0,2.2,1.9-2.5,3.4c-9.2,2.8-38,3.6-46,0.1c-2.8-1.3,2.5-3,4.2-3.4c1.8-0.3,2.8-0.3,2.8-0.3
		c-3.2-2.2-20.7,4.4-8.9,6.4C223,91.3,249.6,83.7,241.2,80 M207.3,55.4c0,0-14.7,3.5-5.2,4.7c4,0.5,12,0.4,19.4-0.2
		c6-0.5,12.2-1.6,12.2-1.6s-2.2,0.9-3.7,2c-14.9,3.9-43.8,2.1-35.5-1.9C201.6,55,207.3,55.4,207.3,55.4 M233.8,70.2
		c15.2-7.9,8.1-15.5,3.3-14.4c-1.2,0.3-1.7,0.4-1.7,0.4s0.4-0.7,1.3-1c9.7-3.4,17.1,10-3.1,15.4C233.3,70.5,233.7,70.3,233.8,70.2
		 M224.6,10.9c0,0,8.4,8.4-7.9,21.3c-13.1,10.4-3,16.2,0,23.1c-7.7-6.9-13.3-13-9.5-18.6C212.6,28.3,228,24.2,224.6,10.9"/>
	<path class="st0" d="M208.9,91.5c14.6,0.9,37-0.5,37.5-7.4c0,0-1,2.6-12,4.7c-12.4,2.3-27.7,2.1-36.9,0.6
		C197.3,89.3,199.3,90.9,208.9,91.5"/>
	<g id="NET">
		<circle class="st3" cx="216.4" cy="56.2" r="55"/>
		<g id="XMLID_2_">
			<path id="XMLID_3_" class="st0" d="M229.9,42.3c0.5-0.4,0.8-1,0.8-1.8c0-0.7-0.2-1.2-0.6-1.6c-0.3-0.3-0.9-0.7-1.6-0.9
				c-0.7-0.3-1.1-0.5-1.3-0.7c-0.3-0.2-0.3-0.5-0.3-0.9c0-0.3,0.2-0.7,0.4-0.9c0.3-0.3,0.7-0.3,1.1-0.3c0.8,0,1.4,0.2,2,0.6v-1.4
				c-0.5-0.3-1.2-0.4-1.9-0.4c-0.9,0-1.6,0.3-2.2,0.7c-0.6,0.5-0.9,1.1-0.9,1.8s0.2,1.2,0.5,1.5s0.9,0.7,1.5,0.9
				c0.7,0.3,1.2,0.6,1.4,0.8c0.3,0.3,0.3,0.5,0.3,0.9c0,0.8-0.5,1.2-1.6,1.2c-0.9,0-1.5-0.3-2.2-0.9v1.4c0.6,0.3,1.4,0.5,2.1,0.5
				C228.5,43.1,229.2,42.8,229.9,42.3z"/>
			<path id="XMLID_29_" class="st0" d="M242.8,42.8h1.4v-7.4h2v-1.2h-2v-1.4c0-1.2,0.5-1.8,1.4-1.8c0.3,0,0.7,0.1,0.9,0.3V30
				c-0.3-0.1-0.6-0.2-1-0.2c-0.8,0-1.4,0.3-1.9,0.7c-0.6,0.5-0.9,1.3-0.9,2.2v1.4h-1.3v1.2h1.4L242.8,42.8L242.8,42.8z"/>
			<path id="XMLID_30_" class="st0" d="M198.9,32c0.3,0,0.4-0.1,0.7-0.3c0.2-0.2,0.3-0.4,0.3-0.7s-0.1-0.4-0.3-0.6s-0.4-0.3-0.7-0.3
				s-0.4,0.1-0.6,0.3c-0.2,0.2-0.3,0.4-0.3,0.6c0,0.3,0.1,0.5,0.3,0.7S198.6,32,198.9,32z"/>
			<path id="XMLID_31_" class="st0" d="M205.8,43.1c0.9,0,1.7-0.2,2.4-0.6v-1.3c-0.7,0.5-1.4,0.8-2.1,0.8c-0.9,0-1.6-0.3-2.1-0.9
				c-0.5-0.6-0.8-1.4-0.8-2.4s0.3-1.9,0.9-2.5c0.5-0.6,1.3-0.9,2.1-0.9s1.4,0.3,2,0.7v-1.4c-0.6-0.3-1.3-0.4-2-0.4
				c-1.4,0-2.5,0.4-3.2,1.3c-0.9,0.9-1.2,2-1.2,3.4c0,1.3,0.3,2.3,1.1,3.1C203.5,42.6,204.5,43.1,205.8,43.1L205.8,43.1z"/>
			<path id="XMLID_34_" class="st0" d="M254.8,34.9h0.3c0.2,0,0.3,0.2,0.5,0.5l0.3,0.7h0.5l-0.4-0.8c-0.2-0.3-0.3-0.5-0.5-0.5
				c0.3-0.1,0.4-0.2,0.5-0.3c0.2-0.2,0.2-0.3,0.2-0.5c0-0.3-0.1-0.4-0.3-0.5c-0.2-0.2-0.4-0.3-0.9-0.3h-0.9v2.9h0.4v-1.2L254.8,34.9
				L254.8,34.9z M254.8,33.5h0.3c0.3,0,0.4,0.1,0.5,0.2c0.1,0.1,0.2,0.2,0.2,0.3c0,0.3-0.2,0.5-0.6,0.5h-0.4V33.5z"/>
			<path id="XMLID_35_" class="st0" d="M248.4,40.5c0,1.7,0.8,2.6,2.2,2.6c0.5,0,0.9-0.1,1.3-0.3v-1.2c-0.3,0.2-0.5,0.3-0.9,0.3
				s-0.8-0.1-1-0.3c-0.2-0.3-0.3-0.7-0.3-1.2v-4.8h2.1v-1.3h-2.1v-2.6c-0.5,0.2-0.9,0.3-1.4,0.4v2.1h-1.4v1.2h1.4L248.4,40.5
				L248.4,40.5z"/>
			<path id="XMLID_40_" class="st0" d="M255.2,36.9c0.7,0,1.2-0.3,1.6-0.7s0.7-0.9,0.7-1.6c0-0.7-0.3-1.2-0.7-1.6
				c-0.4-0.4-0.9-0.6-1.6-0.6c-0.7,0-1.2,0.3-1.6,0.7c-0.4,0.4-0.7,1-0.7,1.6c0,0.7,0.3,1.2,0.7,1.6C254,36.8,254.6,36.9,255.2,36.9
				L255.2,36.9z M253.9,33.3c0.4-0.4,0.9-0.6,1.4-0.6s1,0.2,1.4,0.6c0.4,0.4,0.6,0.9,0.6,1.4s-0.2,1.1-0.6,1.4
				c-0.4,0.4-0.9,0.6-1.4,0.6s-1-0.2-1.4-0.6s-0.6-0.9-0.6-1.4S253.4,33.6,253.9,33.3z"/>
			<path id="XMLID_41_" class="st0" d="M198.2,34.2h1.4v8.6h-1.4V34.2z"/>
			<path id="XMLID_44_" class="st0" d="M219.5,43.1c1.3,0,2.4-0.4,3.1-1.3c0.8-0.9,1.2-2,1.2-3.3s-0.3-2.5-1.1-3.3
				c-0.7-0.8-1.7-1.2-3-1.2s-2.4,0.3-3.1,1.1c-0.9,0.9-1.3,2-1.3,3.5c0,1.3,0.3,2.4,1.1,3.1C217.2,42.6,218.2,43.1,219.5,43.1z
				 M217.6,36c0.5-0.6,1.2-0.9,2-0.9c0.9,0,1.5,0.3,2,0.9c0.5,0.6,0.8,1.4,0.8,2.6c0,1-0.3,1.9-0.7,2.5c-0.5,0.6-1.2,0.9-2,0.9
				c-0.9,0-1.5-0.3-2.1-0.9c-0.5-0.6-0.8-1.4-0.8-2.4C216.8,37.4,217,36.6,217.6,36z"/>
			<path id="XMLID_47_" class="st0" d="M239.2,41.8c0.8-0.9,1.2-2,1.2-3.3s-0.3-2.5-1.1-3.3c-0.7-0.8-1.7-1.2-3-1.2
				s-2.4,0.3-3.1,1.1c-0.9,0.9-1.3,2-1.3,3.5c0,1.3,0.3,2.4,1.1,3.1c0.8,0.9,1.8,1.3,3.1,1.3C237.5,43.1,238.5,42.6,239.2,41.8z
				 M233.4,38.5c0-1.1,0.3-2,0.9-2.6c0.5-0.6,1.2-0.9,2-0.9c0.9,0,1.5,0.3,2,0.9c0.5,0.6,0.8,1.4,0.8,2.6c0,1-0.3,1.9-0.7,2.5
				c-0.5,0.6-1.2,0.9-2,0.9s-1.5-0.3-2.1-0.9C233.6,40.4,233.4,39.6,233.4,38.5z"/>
			<path id="XMLID_48_" class="st0" d="M219.1,64h11.4v-3.3h-11.4V50.1h12.3v-3.3h-16.1v31.6h16.8v-3.3h-13V64z"/>
			<path id="XMLID_49_" class="st0" d="M235.6,50.1h9.1v28.3h3.7V50.1h9.1v-3.3h-21.9V50.1z"/>
			<path id="XMLID_50_" class="st0" d="M175,73.9c-0.7,0-1.3,0.3-1.7,0.8c-0.5,0.5-0.7,1.1-0.7,1.8s0.3,1.3,0.7,1.8
				c0.5,0.5,1,0.8,1.7,0.8s1.3-0.3,1.8-0.8s0.8-1.1,0.8-1.8s-0.3-1.3-0.8-1.8S175.8,73.9,175,73.9z"/>
			<path id="XMLID_51_" class="st0" d="M212.6,34.5c-0.4,0.3-0.8,0.9-0.9,1.4v-1.8h-1.4v8.6h1.4v-4.3c0-1,0.3-1.8,0.7-2.4
				c0.3-0.5,0.9-0.8,1.4-0.8c0.4,0,0.9,0.1,1,0.3v-1.4c-0.2-0.1-0.4-0.1-0.9-0.1C213.5,34,213,34.2,212.6,34.5z"/>
			<path id="XMLID_52_" class="st0" d="M184.2,32.4h0.1l4.4,10.4h0.7l4.5-10.4l-0.1,10.4h1.5v-12h-1.8l-4.4,9.8l-4.3-9.8h-1.9v12
				h1.4L184.2,32.4L184.2,32.4z"/>
			<path id="XMLID_53_" class="st0" d="M204.7,73.5l-16.9-26.7h-4.9v31.6h3.8V51.3l17.2,27.1h4.5V46.8h-3.7L204.7,73.5L204.7,73.5z"
				/>
		</g>
	</g>
</g>
</svg>
